<mxfile host="app.diagrams.net" modified="2022-04-13T08:47:28.891Z" agent="5.0 (Windows NT 10.0; Win64; x64) AppleWebKit/537.36 (KHTML, like Gecko) Chrome/99.0.4844.51 Safari/537.36" etag="H6TaB1WAl7GHD73b8QLH" version="17.4.0" type="github">
  <diagram id="R2lEEEUBdFMjLlhIrx00" name="Page-1">
    <mxGraphModel dx="1422" dy="762" grid="1" gridSize="10" guides="1" tooltips="1" connect="1" arrows="1" fold="1" page="1" pageScale="1" pageWidth="850" pageHeight="1100" math="0" shadow="0" extFonts="Permanent Marker^https://fonts.googleapis.com/css?family=Permanent+Marker">
      <root>
        <mxCell id="0" />
        <mxCell id="1" parent="0" />
        <mxCell id="_Z4REpbb4zpVvKTVxkWD-6" value="1" style="edgeStyle=orthogonalEdgeStyle;rounded=0;orthogonalLoop=1;jettySize=auto;html=1;" edge="1" parent="1" source="_Z4REpbb4zpVvKTVxkWD-3" target="_Z4REpbb4zpVvKTVxkWD-5">
          <mxGeometry relative="1" as="geometry" />
        </mxCell>
        <mxCell id="_Z4REpbb4zpVvKTVxkWD-3" value="工程类型" style="whiteSpace=wrap;html=1;align=center;" vertex="1" parent="1">
          <mxGeometry x="140" y="180" width="100" height="40" as="geometry" />
        </mxCell>
        <mxCell id="_Z4REpbb4zpVvKTVxkWD-10" value="1" style="edgeStyle=orthogonalEdgeStyle;rounded=0;orthogonalLoop=1;jettySize=auto;html=1;" edge="1" parent="1" source="_Z4REpbb4zpVvKTVxkWD-4" target="_Z4REpbb4zpVvKTVxkWD-9">
          <mxGeometry relative="1" as="geometry" />
        </mxCell>
        <mxCell id="_Z4REpbb4zpVvKTVxkWD-4" value="项目类别" style="whiteSpace=wrap;html=1;align=center;" vertex="1" parent="1">
          <mxGeometry x="510" y="180" width="100" height="40" as="geometry" />
        </mxCell>
        <mxCell id="_Z4REpbb4zpVvKTVxkWD-7" value="n" style="edgeStyle=orthogonalEdgeStyle;rounded=0;orthogonalLoop=1;jettySize=auto;html=1;" edge="1" parent="1" source="_Z4REpbb4zpVvKTVxkWD-5" target="_Z4REpbb4zpVvKTVxkWD-4">
          <mxGeometry relative="1" as="geometry" />
        </mxCell>
        <mxCell id="_Z4REpbb4zpVvKTVxkWD-5" value="拥有" style="shape=rhombus;perimeter=rhombusPerimeter;whiteSpace=wrap;html=1;align=center;" vertex="1" parent="1">
          <mxGeometry x="320" y="170" width="120" height="60" as="geometry" />
        </mxCell>
        <mxCell id="_Z4REpbb4zpVvKTVxkWD-14" value="1" style="edgeStyle=orthogonalEdgeStyle;rounded=0;orthogonalLoop=1;jettySize=auto;html=1;" edge="1" parent="1" source="_Z4REpbb4zpVvKTVxkWD-8" target="_Z4REpbb4zpVvKTVxkWD-13">
          <mxGeometry relative="1" as="geometry" />
        </mxCell>
        <mxCell id="_Z4REpbb4zpVvKTVxkWD-8" value="审批阶段" style="whiteSpace=wrap;html=1;align=center;" vertex="1" parent="1">
          <mxGeometry x="510" y="360" width="100" height="40" as="geometry" />
        </mxCell>
        <mxCell id="_Z4REpbb4zpVvKTVxkWD-11" value="n" style="edgeStyle=orthogonalEdgeStyle;rounded=0;orthogonalLoop=1;jettySize=auto;html=1;" edge="1" parent="1" source="_Z4REpbb4zpVvKTVxkWD-9" target="_Z4REpbb4zpVvKTVxkWD-8">
          <mxGeometry relative="1" as="geometry" />
        </mxCell>
        <mxCell id="_Z4REpbb4zpVvKTVxkWD-9" value="拥有" style="shape=rhombus;perimeter=rhombusPerimeter;whiteSpace=wrap;html=1;align=center;" vertex="1" parent="1">
          <mxGeometry x="500" y="260" width="120" height="60" as="geometry" />
        </mxCell>
        <mxCell id="_Z4REpbb4zpVvKTVxkWD-12" value="基本信息" style="whiteSpace=wrap;html=1;align=center;" vertex="1" parent="1">
          <mxGeometry x="140" y="280" width="100" height="40" as="geometry" />
        </mxCell>
        <mxCell id="_Z4REpbb4zpVvKTVxkWD-17" value="n" style="edgeStyle=orthogonalEdgeStyle;rounded=0;orthogonalLoop=1;jettySize=auto;html=1;exitX=0;exitY=0.5;exitDx=0;exitDy=0;entryX=1;entryY=0.5;entryDx=0;entryDy=0;" edge="1" parent="1" source="_Z4REpbb4zpVvKTVxkWD-13" target="_Z4REpbb4zpVvKTVxkWD-16">
          <mxGeometry relative="1" as="geometry" />
        </mxCell>
        <mxCell id="_Z4REpbb4zpVvKTVxkWD-19" value="1" style="edgeStyle=orthogonalEdgeStyle;rounded=0;orthogonalLoop=1;jettySize=auto;html=1;exitX=0.5;exitY=0;exitDx=0;exitDy=0;entryX=1;entryY=0.25;entryDx=0;entryDy=0;" edge="1" parent="1" source="_Z4REpbb4zpVvKTVxkWD-13" target="_Z4REpbb4zpVvKTVxkWD-12">
          <mxGeometry relative="1" as="geometry" />
        </mxCell>
        <mxCell id="_Z4REpbb4zpVvKTVxkWD-21" value="1" style="edgeStyle=orthogonalEdgeStyle;rounded=0;orthogonalLoop=1;jettySize=auto;html=1;entryX=1;entryY=0.75;entryDx=0;entryDy=0;exitX=0.5;exitY=1;exitDx=0;exitDy=0;" edge="1" parent="1" source="_Z4REpbb4zpVvKTVxkWD-13" target="_Z4REpbb4zpVvKTVxkWD-20">
          <mxGeometry relative="1" as="geometry" />
        </mxCell>
        <mxCell id="_Z4REpbb4zpVvKTVxkWD-23" value="1" style="edgeStyle=orthogonalEdgeStyle;rounded=0;orthogonalLoop=1;jettySize=auto;html=1;" edge="1" parent="1" source="_Z4REpbb4zpVvKTVxkWD-13" target="_Z4REpbb4zpVvKTVxkWD-22">
          <mxGeometry relative="1" as="geometry">
            <mxPoint x="250" y="462" as="targetPoint" />
            <Array as="points">
              <mxPoint x="380" y="460" />
            </Array>
          </mxGeometry>
        </mxCell>
        <mxCell id="_Z4REpbb4zpVvKTVxkWD-27" value="n" style="edgeStyle=orthogonalEdgeStyle;rounded=0;orthogonalLoop=1;jettySize=auto;html=1;" edge="1" parent="1" source="_Z4REpbb4zpVvKTVxkWD-13" target="_Z4REpbb4zpVvKTVxkWD-25">
          <mxGeometry relative="1" as="geometry">
            <Array as="points">
              <mxPoint x="380" y="520" />
            </Array>
          </mxGeometry>
        </mxCell>
        <mxCell id="_Z4REpbb4zpVvKTVxkWD-28" value="n" style="edgeStyle=orthogonalEdgeStyle;rounded=0;orthogonalLoop=1;jettySize=auto;html=1;exitX=0.5;exitY=1;exitDx=0;exitDy=0;entryX=1;entryY=0.5;entryDx=0;entryDy=0;" edge="1" parent="1" source="_Z4REpbb4zpVvKTVxkWD-13" target="_Z4REpbb4zpVvKTVxkWD-26">
          <mxGeometry relative="1" as="geometry" />
        </mxCell>
        <mxCell id="_Z4REpbb4zpVvKTVxkWD-13" value="拥有" style="shape=rhombus;perimeter=rhombusPerimeter;whiteSpace=wrap;html=1;align=center;" vertex="1" parent="1">
          <mxGeometry x="320" y="350" width="120" height="60" as="geometry" />
        </mxCell>
        <mxCell id="_Z4REpbb4zpVvKTVxkWD-16" value="办理事项" style="whiteSpace=wrap;html=1;align=center;" vertex="1" parent="1">
          <mxGeometry x="140" y="332" width="100" height="40" as="geometry" />
        </mxCell>
        <mxCell id="_Z4REpbb4zpVvKTVxkWD-20" value="办理流程" style="whiteSpace=wrap;html=1;align=center;" vertex="1" parent="1">
          <mxGeometry x="140" y="386" width="100" height="40" as="geometry" />
        </mxCell>
        <mxCell id="_Z4REpbb4zpVvKTVxkWD-22" value="申请表单" style="whiteSpace=wrap;html=1;align=center;" vertex="1" parent="1">
          <mxGeometry x="140" y="442" width="100" height="40" as="geometry" />
        </mxCell>
        <mxCell id="_Z4REpbb4zpVvKTVxkWD-25" value="应交材料" style="whiteSpace=wrap;html=1;align=center;" vertex="1" parent="1">
          <mxGeometry x="140" y="500" width="100" height="40" as="geometry" />
        </mxCell>
        <mxCell id="_Z4REpbb4zpVvKTVxkWD-26" value="收费标准" style="whiteSpace=wrap;html=1;align=center;" vertex="1" parent="1">
          <mxGeometry x="140" y="560" width="100" height="40" as="geometry" />
        </mxCell>
      </root>
    </mxGraphModel>
  </diagram>
</mxfile>
